<mxfile host="app.diagrams.net" modified="2023-02-26T01:54:07.108Z" agent="5.0 (Windows NT 10.0; Win64; x64) AppleWebKit/537.36 (KHTML, like Gecko) Chrome/108.0.0.0 Safari/537.36 Edg/108.0.1462.76" etag="AmL4lF5IZ-qXLS4exAsh" version="20.8.23" type="github" pages="2">
  <diagram name="Page-1" id="rK8sP8XB6P-i0ZL2sLej">
    <mxGraphModel dx="1386" dy="788" grid="1" gridSize="10" guides="1" tooltips="1" connect="1" arrows="1" fold="1" page="1" pageScale="1" pageWidth="850" pageHeight="1100" math="0" shadow="0">
      <root>
        <mxCell id="0" />
        <mxCell id="1" parent="0" />
        <mxCell id="8jbwbLaQlG3goiATzqjS-1" value="" style="shape=image;html=1;verticalAlign=top;verticalLabelPosition=bottom;labelBackgroundColor=#ffffff;imageAspect=0;aspect=fixed;image=https://cdn2.iconfinder.com/data/icons/analytic-investment-and-balanced-scorecard/512/408_drum_drums_instrument_kit_musical_sound_design_producstion-128.png" parent="1" vertex="1">
          <mxGeometry x="363" y="10" width="125" height="125" as="geometry" />
        </mxCell>
        <mxCell id="8jbwbLaQlG3goiATzqjS-2" value="" style="shape=image;html=1;verticalAlign=top;verticalLabelPosition=bottom;labelBackgroundColor=#ffffff;imageAspect=0;aspect=fixed;image=https://cdn2.iconfinder.com/data/icons/analytic-investment-and-balanced-scorecard/512/423_Console_dj_mixer_music_studio_sound_design_producstion-128.png" parent="1" vertex="1">
          <mxGeometry x="610" y="240" width="58" height="58" as="geometry" />
        </mxCell>
        <mxCell id="8jbwbLaQlG3goiATzqjS-3" value="" style="html=1;verticalLabelPosition=bottom;verticalAlign=top;outlineConnect=0;shadow=0;dashed=0;shape=mxgraph.rack.hpe_aruba.switches.j9773a_2530_24g_poeplus_switch;" parent="1" vertex="1">
          <mxGeometry x="604" y="320" width="70" height="15" as="geometry" />
        </mxCell>
        <mxCell id="8jbwbLaQlG3goiATzqjS-4" value="" style="aspect=fixed;html=1;points=[];align=center;image;fontSize=12;image=img/lib/azure2/general/Power.svg;" parent="1" vertex="1">
          <mxGeometry x="700" y="440" width="44" height="68" as="geometry" />
        </mxCell>
      </root>
    </mxGraphModel>
  </diagram>
  <diagram id="QeR8Ccd4h7qsdjCPe4_X" name="Drum Set">
    <mxGraphModel dx="1386" dy="788" grid="1" gridSize="10" guides="1" tooltips="1" connect="1" arrows="1" fold="1" page="1" pageScale="1" pageWidth="850" pageHeight="1100" math="0" shadow="0">
      <root>
        <mxCell id="0" />
        <mxCell id="1" parent="0" />
      </root>
    </mxGraphModel>
  </diagram>
</mxfile>
